<svg width="126px" height="29px" viewBox="0 0 126 29" version="1.1" xmlns="http://www.w3.org/2000/svg" xmlns:xlink="http://www.w3.org/1999/xlink" data-v-0df4d859=""><g stroke="none" stroke-width="1" fill="none" fill-rule="evenodd" class="nexible-logo-transform" data-v-0df4d859=""><g id="nexible-logo-black-transform" fill="#111111" data-v-0df4d859=""><path id="n" d="M0,9.53831183 L10.4777533,9.53831183 C16.0044366,9.53831183 19.2439192,12.5922712 19.2439192,18.1232572 L19.2439192,28.6129438 L13.793498,28.6129438 L13.793498,18.8860832 C13.793498,15.6429111 12.533515,14.4983402 9.71579517,14.4983402 L5.44975802,14.4983402 L5.44975802,28.6155995 L0,28.6155995 L0,9.53831183 Z" data-v-0df4d859=""></path> <path id="e" d="M32.0911037,9.15922253 C37.6171238,9.15922253 41.6185645,13.5469655 41.6185645,19.0792793 C41.6247357,19.7572424 41.5609561,20.4340311 41.4282408,21.0988759 L28.0889998,21.0988759 C28.6228347,22.9305877 30.071152,24.418397 33.0818482,24.418397 C35.4831105,24.418397 36.8929652,23.5792221 38.2265577,22.8157322 L39.9414609,27.0514411 C37.8856991,28.196012 35.2921236,28.9973444 32.8915244,28.9973444 C27.4795659,28.9973444 22.5629796,24.9880268 22.5629796,19.0792793 C22.5629796,13.890204 26.3740966,9.15922253 32.0911037,9.15922253 Z M32.0911037,13.9260548 C29.9186277,13.9260548 28.584372,15.2233236 28.0512003,17.0928779 L36.3591303,17.0928779 C36.1303439,15.9104645 34.9492756,13.9260548 32.0911037,13.9260548 Z" fill-rule="nonzero" class="fade-out" data-v-0df4d859=""></path> <path id="x" d="M49.4576482 18.8097342 42.9057366 9.53831183 49.0796533 9.53831183 52.6606576 15.1469746 56.2814508 9.53831183 62.5316296 9.53831183 56.0128755 18.8097342 62.9096245 28.6155995 56.7357078 28.6155995 52.7733929 22.4724938 48.771289 28.6155995 42.5211102 28.6155995z" data-v-0df4d859=""></path> <g id="i" transform="translate(64.620549, 0.000000)" class="fade-out" data-v-0df4d859=""><path d="M7.10542736e-15,3.8147936 C0.0003662,1.70766105 1.7068235,-0.000244422124 3.811559,0 C5.9162944,0.000244422124 7.6223559,1.70854619 7.6222339,3.81567876 C7.6221118,5.92281133 5.9158524,7.63091502 3.811117,7.63091502 C1.708607,7.624715 0.0058271,5.91969913 7.10542736e-15,3.8147936 Z" data-v-0df4d859=""></path> <path d="M1.1432688 9.53831183 6.5930268 9.53831183 6.5930268 28.6155995 1.1432688 28.6155995z" data-v-0df4d859=""></path></g> <path id="b" fill-rule="nonzero" d="M81.2092196,1.90739678 L81.2092196,9.91740114 C82.3524884,9.38627777 83.8770678,9.15391129 85.0965987,9.15391129 C86.6967771,9.15391129 88.7929909,9.64984774 90.5841562,10.8707676 C93.2142049,12.6666285 94.6240596,15.5287196 94.6240596,19.0792793 C94.6240596,24.9933381 90.7777957,29 83.9911294,29 C80.0652877,29 76.7117435,27.6642247 75.7587984,27.2831437 L75.7587984,1.90739678 L81.2092196,1.90739678 Z M84.1814532,13.9287104 C83.1412209,13.9198928 82.1167055,14.1830642 81.2092196,14.6922003 L81.2092196,23.5818777 C82.1316111,24.000197 83.1310771,24.2211214 84.1436537,24.2305121 C86.1251427,24.2278565 89.1743015,23.4265241 89.1743015,19.1529727 C89.1743015,14.9205833 86.2014048,13.9287104 84.1814532,13.9287104 Z" class="fade-out" data-v-0df4d859=""></path> <path id="l" d="M98.0876865 1.90739678 103.537445 1.90739678 103.537445 28.6155995 98.0876865 28.6155995z" class="fade-out" data-v-0df4d859=""></path> <path id="e2" fill-rule="nonzero" d="M116.471501,9.15656691 C121.998185,9.15656691 125.999626,13.5443099 125.999626,19.0766237 C126.005543,19.7555195 125.941318,20.433208 125.807975,21.0988759 L112.470061,21.0988759 C113.00058,22.9305877 114.452213,24.418397 117.462909,24.418397 C119.863508,24.418397 121.274026,23.5792221 122.607619,22.8157322 L124.322522,27.0514411 C122.26676,28.196012 119.673185,28.9973444 117.271922,28.9973444 C111.860627,28.9973444 106.944041,24.9906824 106.944041,19.0766237 C106.944041,13.8875483 110.755158,9.15656691 116.471501,9.15656691 Z M116.469512,13.9260548 C114.297699,13.9260548 112.963444,15.2233236 112.430272,17.0928779 L120.738202,17.0928779 C120.509415,15.9104645 119.328347,13.9260548 116.469512,13.9260548 Z" class="fade-out" data-v-0df4d859=""></path></g></g></svg>